<svg xmlns="http://www.w3.org/2000/svg" xmlns:osb="http://www.openswatchbook.org/uri/2009/osb" xmlns:svg="http://www.w3.org/2000/svg" xmlns:xlink="http://www.w3.org/1999/xlink" id="svg8" width="256" height="256" version="1.1" viewBox="0 0 67.733 67.733"><defs id="defs2"><linearGradient id="linearGradient5385"><stop style="stop-color:#ff734d;stop-opacity:1" id="stop5383" offset="0"/></linearGradient><linearGradient id="linearGradient5343"><stop style="stop-color:#000;stop-opacity:1" id="stop5341" offset="0"/></linearGradient><linearGradient id="Border" osb:paint="solid"><stop style="stop-color:#b986f5;stop-opacity:1" id="stop5326" offset="0"/></linearGradient><linearGradient id="Bell" gradientTransform="matrix(0.26458333,0,0,0.26458333,-13.960514,-21.425512)" osb:paint="solid"><stop style="stop-color:#88ea15;stop-opacity:1" id="stop5318" offset="0"/></linearGradient><linearGradient id="linearGradient5322" x1="59.17" x2="91.017" y1="77.139" y2="77.139" gradientUnits="userSpaceOnUse" xlink:href="#Bell"/><linearGradient id="linearGradient5324" x1="211" x2="476" y1="405.067" y2="405.067" gradientUnits="userSpaceOnUse" xlink:href="#Bell"/><linearGradient id="linearGradient5330" x1="7.524" x2="60.186" y1="267.094" y2="267.094" gradientTransform="translate(0.48474008,-231.7873)" gradientUnits="userSpaceOnUse" xlink:href="#Border"/><linearGradient id="linearGradient5345" x1="2.846" x2="60.655" y1="33.462" y2="33.462" gradientTransform="matrix(1.1259011,0,0,1.1259011,-1.8812282,-3.8084745)" gradientUnits="userSpaceOnUse" xlink:href="#Border"/><linearGradient id="linearGradient5387" x1="29.598" x2="229.643" y1="134.672" y2="134.672" gradientUnits="userSpaceOnUse" xlink:href="#Border"/></defs><metadata id="metadata5"/><g id="layer5" transform="translate(0,-229.26665)" style="display:none;opacity:1"><rect style="opacity:1;fill:#0d1117;fill-opacity:1;stroke:none;stroke-width:.26499999;stroke-miterlimit:4;stroke-dasharray:none;stroke-opacity:1" id="rect5294" width="67.733" height="67.733" x="0" y="229.267"/></g><g id="layer9" style="display:inline"><path style="opacity:1;fill:url(#linearGradient5387);fill-opacity:1;stroke:none;stroke-width:9.77179909;stroke-miterlimit:4;stroke-dasharray:none;stroke-opacity:1" id="rect5348" d="m 41.597656,77.898438 c -6.648,-10e-7 -12,5.352 -12,12 v 89.546872 c 0,6.648 5.352,12 12,12 h 35.517578 c -0.920467,-2.84784 0.160029,-6.53871 0.373047,-9.18554 H 49.007812 c -6.088344,0 -10.988281,-4.90189 -10.988281,-10.99024 V 98.074219 c 0,-6.088347 4.899937,-10.990235 10.988281,-10.990235 h 48.916016 c 1.485968,-2.96166 2.734942,-6.094377 3.373052,-9.185546 z m 99.843754,0 c 3.05782,2.658308 5.69376,5.525593 6.70312,9.185546 h 62.08789 c 6.08835,0 10.99024,4.901888 10.99024,10.990235 v 73.195311 c 0,6.08835 -4.90189,10.99024 -10.99024,10.99024 -1.64796,2.03632 -5.74473,6.64139 -9.3458,9.18554 h 16.75596 c 6.648,0 12,-5.352 12,-12 V 89.898438 c 0,-6.648 -5.352,-12.000001 -12,-12 z" transform="scale(0.26458333)"/></g><g id="layer3" transform="translate(0,-229.26665)" style="display:inline"><g id="g981" transform="matrix(0.48076004,0,0,0.48076004,-6.3176518,220.94345)"><path id="path836" d="m 380.53906,285.66211 c -0.52085,0 4.29256,10.71153 6.06641,13.5 0.69974,1.1 2.66108,5.6 4.35937,10 9.21759,23.88125 12.49203,53.56085 7.97266,72.25586 -2.64189,10.92865 -5.11806,16.11693 -10.60938,22.22461 -8.18203,9.10034 -12.43385,11.44305 -26.32812,14.5039 -77.77025,17.13249 -151,58.38538 -151,85.06446 0,10.87555 12.42334,18.34579 34,20.44336 11.32842,1.10143 15.2602,1.09444 30.5,-0.0547 66.75432,-5.0335 152.37575,-36.9565 186.45703,-69.51758 C 470.33326,446.07945 476,436.99402 476,431.56836 c 0,-7.25424 -5.61085,-13.72775 -25.0332,-28.88086 -19.55203,-15.25432 -21.78857,-18.85766 -37.25391,-60.02539 -7.38309,-16.1493 -14.66783,-49.22629 -33.17383,-57 z M 416.51367,419.75 c 32.74117,-0.0745 49.09881,9.96991 40.37891,27.14062 -5.19957,10.23867 -23.33324,24.24952 -46.89258,36.23047 -31.62686,16.08359 -69.46404,28.03194 -108,34.10352 -14.21631,2.2399 -41.73062,2.74011 -51.23828,0.93164 C 212.27933,510.83648 224.46202,483.00742 278,455.93164 l 12.5,-6.32226 0.74023,5.74023 c 2.67521,20.73184 16.73853,36.51761 37.22071,41.78125 11.16243,2.86859 21.84472,1.59093 33.18164,-3.96875 23.51253,-11.53062 33.57856,-40.31711 22.43164,-64.15039 l -2.87695,-6.15234 4.15234,-0.60157 c 11.54547,-1.67333 21.99653,-2.48694 31.16406,-2.50781 z" transform="scale(0.26458333)" style="display:inline;opacity:1;fill:url(#linearGradient5324);fill-opacity:1;stroke-width:.99999994"/><path id="path832" d="m 59.21776,121.21737 c -0.08446,-0.0845 -0.05341,-0.59931 0.069,-1.1441 0.544861,-2.425 1.038447,-9.18547 1.040807,-14.25554 0.0028,-5.950187 0.361733,-13.232198 0.818788,-16.610133 0.838678,-6.198399 2.527225,-11.215171 6.992619,-17.955658 2.80812,-4.482288 4.976266,-8.899345 5.01085,-13.529757 0.0067,-2.607442 -0.06579,-3.066727 -0.696413,-4.411967 -0.86134,-1.837398 -2.53902,-3.709026 -4.392149,-4.899897 -5.496155,-3.531981 -4.330874,-12.521247 1.929249,-14.882711 3.13708,-1.183379 6.897428,-0.367575 9.277818,2.012816 1.593374,1.593373 2.355191,3.547587 2.355437,6.042176 -0.10531,3.695653 -2.390922,6.014962 -2.177968,9.676461 0.263919,3.850486 1.486945,5.672748 6.830555,10.177269 3.829563,3.228215 4.740333,4.293234 4.740333,5.54315 0,0.350292 -0.154549,0.331904 -1.050005,-0.124923 -1.598633,-0.815562 -4.127005,-1.318919 -6.646735,-1.323256 -4.350609,-0.0075 -8.570475,1.613517 -11.588686,4.451628 -1.2989,1.221396 -1.835935,2.009942 -2.911948,4.275712 -3.430688,7.224024 -4.61165,13.088069 -4.635749,23.018748 -0.02143,8.832552 0.571617,12.483552 2.77087,17.058302 0.557724,1.16015 0.990905,2.12457 0.962626,2.14316 -0.617368,0.40592 -7.960677,4.66757 -8.20293,4.76054 -0.188536,0.0723 -0.411895,0.0624 -0.496353,-0.022 z" style="display:inline;opacity:1;fill:url(#linearGradient5322);fill-opacity:1;stroke-width:.26458332"/></g></g><g id="layer7" style="display:none"><path style="display:inline;opacity:1;fill:url(#linearGradient5330);fill-opacity:1;stroke:none;stroke-width:.12740137;stroke-miterlimit:4;stroke-dasharray:none;stroke-opacity:1" id="rect907" d="m 10.893253,20.714936 c -1.5980476,0 -2.8846326,1.28635 -2.8846326,2.88443 v 23.41386 c 0,1.59808 1.286585,2.88469 2.8846326,2.88469 h 9.439466 c 0.06252,-0.50425 0.114477,-1.01313 0.157013,-1.52544 h -8.179124 c -1.501444,0 -2.7102286,-1.15206 -2.7102336,-2.583 v -20.9661 c 0,-1.43094 1.2087896,-2.583 2.7102336,-2.583 h 13.971003 c 0.211296,-0.50339 0.38516,-1.01605 0.498616,-1.52544 z m 26.652358,0 c 0.524635,0.46652 0.993851,0.96048 1.317472,1.52544 h 17.505805 c 1.501438,0 2.710229,1.15206 2.710229,2.583 v 20.9661 c 0,1.43094 -1.208791,2.583 -2.710229,2.583 h -1.569399 c -0.360977,0.54541 -0.761538,1.05138 -1.193254,1.52544 h 4.179999 c 1.598053,0 2.884633,-1.28661 2.884633,-2.88469 v -23.41386 c 0,-1.59808 -1.28658,-2.88443 -2.884633,-2.88443 z"/></g><g id="layer8" style="display:none"><circle style="opacity:1;fill:none;fill-opacity:1;stroke:url(#linearGradient5345);stroke-width:2.97894621;stroke-miterlimit:4;stroke-dasharray:none;stroke-opacity:1" id="path5339" cx="33.867" cy="33.867" r="31.054"/></g></svg>